<svg width="30" height="30" viewBox="0 0 30 30" fill="none" xmlns="http://www.w3.org/2000/svg">
<path fill-rule="evenodd" clip-rule="evenodd" d="M17.6807 2.70779C16.9985 -0.102465 13.0017 -0.102465 12.3195 2.70779C11.8788 4.52318 9.7989 5.38469 8.20358 4.41266C5.73402 2.90791 2.90791 5.73402 4.41266 8.20358C5.38469 9.7989 4.52318 11.8788 2.70779 12.3195C-0.102465 13.0017 -0.102465 16.9985 2.70779 17.6807C4.52318 18.1215 5.38469 20.2014 4.41266 21.7965C2.90791 24.2661 5.73402 27.0923 8.2036 25.5875C9.7989 24.6155 11.8788 25.477 12.3195 27.2925C13.0017 30.1026 16.9985 30.1026 17.6807 27.2925C18.1215 25.477 20.2014 24.6155 21.7965 25.5875C24.2661 27.0923 27.0923 24.2661 25.5875 21.7965C24.6155 20.2014 25.477 18.1215 27.2925 17.6807C30.1026 16.9985 30.1026 13.0017 27.2925 12.3195C25.477 11.8788 24.6155 9.7989 25.5875 8.20358C27.0923 5.73402 24.2661 2.90791 21.7965 4.41266C20.2014 5.38469 18.1215 4.52318 17.6807 2.70779ZM15.0001 20.4001C17.9825 20.4001 20.4001 17.9825 20.4001 15.0001C20.4001 12.0178 17.9825 9.60009 15.0001 9.60009C12.0178 9.60009 9.60009 12.0178 9.60009 15.0001C9.60009 17.9825 12.0178 20.4001 15.0001 20.4001Z" fill="black"/>
</svg>