<svg width="36" height="36" viewBox="0 0 36 36" fill="none" xmlns="http://www.w3.org/2000/svg">
<path d="M16.0629 13.937C14.5472 14.661 13.5 16.2081 13.5 17.9998C13.5 20.4851 15.5147 22.4998 18 22.4998C19.7918 22.4998 21.3389 21.4527 22.0629 19.937" stroke="#3DA9FC" stroke-width="3" stroke-linecap="round" stroke-linejoin="round"/>
<path d="M21.2095 8.79053C20.2044 8.44035 19.1244 8.25 18 8.25C12.6152 8.25 8.25 12.6152 8.25 18C8.25 23.3848 12.6152 27.75 18 27.75C23.3848 27.75 27.75 23.3848 27.75 18C27.75 16.8756 27.5597 15.7956 27.2095 14.7905" stroke="#3DA9FC" stroke-width="3" stroke-linecap="round" stroke-linejoin="round"/>
<path d="M25.1756 4.82441C23.0441 3.66113 20.5993 3 18 3C9.71572 3 3 9.71572 3 18C3 26.2843 9.71572 33 18 33C26.2843 33 33 26.2843 33 18C33 15.4007 32.3389 12.9559 31.1756 10.8244" stroke="#3DA9FC" stroke-width="3" stroke-linecap="round" stroke-linejoin="round"/>
<path d="M33 3L18 18" stroke="#3DA9FC" stroke-width="3" stroke-linecap="round" stroke-linejoin="round"/>
</svg>
